<?xml version="1.0" encoding="utf-8"?>
<!-- Generator: Adobe Illustrator 18.0.0, SVG Export Plug-In . SVG Version: 6.00 Build 0)  -->
<!DOCTYPE svg PUBLIC "-//W3C//DTD SVG 1.0//EN" "http://www.w3.org/TR/2001/REC-SVG-20010904/DTD/svg10.dtd">
<svg version="1.0" id="Capa_1" xmlns="http://www.w3.org/2000/svg" xmlns:xlink="http://www.w3.org/1999/xlink" x="0px" y="0px"
	 viewBox="0 0 442.3 171" enable-background="new 0 0 442.3 171" xml:space="preserve">
<g>
	<path fill="#FFFFFF" d="M0,45c8.7,0,17.4,0,26.1,0c0.8,0,1.4,0.2,2,0.8c8.9,8.9,17.7,17.8,26.6,26.8c0.4,0.4,0.8,1.2,0.8,1.9
		c0.1,4.7,0,9.5,0,14.5c-1.3-1.3-2.5-2.4-3.6-3.6c-9.2-9.1-18.4-18.1-27.5-27.3c-1.5-1.5-2.9-2.2-5-2.1c-2.2,0.2-4.5,0.1-6.8,0
		c-1.2,0-1.6,0.3-1.6,1.6c0,9.4,0,18.8,0,28.1c0,8.1,0,16.3,0,24.4c0,1.2,0.4,1.6,1.6,1.6c6.4-0.1,12.9,0,19.3,0
		c7.5,0,15.1,0.1,22.6,0.1c0.3,0,0.5,0,0.9,0.1c0,14.8,0,29.5,0,44.3c18.6,0,37,0,55.6,0c0-14.8,0-29.5,0-44.3c14.9,0,29.6,0,44.5,0
		c0-18.6,0-37,0-55.5c-14.8,0-29.5,0-44.4,0c0-14.9,0-29.7,0-44.5c-18.5,0-37,0-55.6,0c0,7.8,0,15.6,0,23.6c-0.5-0.4-0.7-0.6-1-0.8
		c-3.1-3.1-6.3-6.3-9.4-9.4c-0.4-0.4-0.7-0.9-0.7-1.4c0-7.5,0-14.9,0-22.4c0-0.2,0-0.3,0.1-0.6c25.9,0,51.7,0,77.7,0
		c0,14.8,0,29.5,0,44.4c14.8,0,29.5,0,44.3,0c0,25.9,0,51.6,0,77.5c-14.8,0-29.5,0-44.4,0c0,14.9,0,29.6,0,44.5
		c-25.9,0-51.8,0-77.7,0c0-0.5,0-1,0-1.5c0-13.8,0-27.5,0-41.3c0-1.2-0.4-1.6-1.5-1.5c-0.6,0.1-1.3,0-1.9,0
		c-13.2,0-26.4-0.1-39.5-0.1c-0.5,0-1,0-1.5,0C0,96.9,0,71,0,45z"/>
	<path fill="#FFFFFF" d="M444,86.2c-0.5,2.2-0.8,4.5-1.7,6.6c-2.9,7.4-8.4,12.1-16.1,13.9c-7.2,1.7-13.9,0.4-19.7-4.1
		c-5.5-4.2-8.5-9.9-8.9-16.9c-0.3-5.5,1.1-10.3,4.2-14.7c3.8-5.4,9-8.6,15.4-9.6c12.9-2.1,25,7.3,26.6,20.3c0,0.2,0.1,0.4,0.2,0.6
		C444,83.7,444,85,444,86.2z M438.3,84.2c0.3-9.8-7.7-17.9-17.8-17.9c-10.2,0-17.7,8.4-17.6,18.3c0.1,9.7,7.9,18,18.3,17.7
		C430.7,102,438.4,94.2,438.3,84.2z"/>
	<path fill="#FFFFFF" d="M444,24.8c-0.6,2.5-1.1,5.1-1.9,7.5c-1.2,3.5-3.6,6.2-6.4,8.6c-2.9,2.5-6.3,4.2-10.1,4.9
		c-2.5,0.4-5.2,0.5-7.7,0.2c-8.9-1-15.3-5.8-18.7-14.1c-3.8-9.5-1.3-19.7,6.5-26.3c6.2-5.3,13.6-6.9,21.4-4.6
		c9.7,2.9,15.1,9.7,16.7,19.7c0,0.2,0.1,0.3,0.2,0.5C444,22.4,444,23.6,444,24.8z M438.4,23.2c0.3-10.1-7.9-18-17.7-18
		c-10.1,0-17.7,7.8-17.7,18c0,9.9,7.8,17.9,17.7,18C430.7,41.3,438.5,32.8,438.4,23.2z"/>
	<path fill="#FFFFFF" d="M197.3,168.6c-1.7-0.6-3.5-1.1-5.1-1.9c-3.2-1.6-4.9-4.6-5.8-7.9c-1.2-4.1-1-8.1,0.8-12.1
		c3.3-7.2,12.1-9.9,18.6-4.8c0.9,0.7,1.7,1.4,2.4,2c0-8.9,0-18.2,0-27.5c1.8,0,3.5,0,5.3,0c0,16.9,0,33.9,0,51c-1.7,0-3.4,0-5.2,0
		c0-1.3,0-2.6,0-4c-0.9,0.9-1.6,1.6-2.4,2.3c-1.7,1.5-3.8,2.4-6,2.8C199,168.6,198.1,168.6,197.3,168.6z M208.7,153.9
		c-0.1-1.1-0.1-2.1-0.4-3.1c-0.9-3.3-2.8-5.6-6.2-6.4c-3.2-0.8-6.3-0.3-8.5,2.4c-3,3.5-3.3,7.6-1.7,11.8c1.9,4.8,7.3,6.9,11.9,4.4
		C207.2,161,208.7,157.8,208.7,153.9z"/>
	<path fill="#FFFFFF" d="M354.1,168.6c-1.3-0.3-2.6-0.5-3.9-0.9c-6.8-2-10.1-7-10.7-13.7c-0.4-5.1-0.3-10.2-0.3-15.3
		c0-4.6,0-9.1,0-13.7c0-0.5,0-1,0-1.6c1.9,0,3.6,0,5.4,0c0,0.5,0,0.9,0,1.3c0,8.1,0,16.3,0,24.4c0,3,0.3,6,1.5,8.7
		c1.7,3.8,4.7,5.5,8.8,5.6c6.2,0.2,9.8-3.3,10.8-9.1c0.3-1.6,0.4-3.2,0.4-4.8c0-8.2,0-16.5,0-24.7c0-0.5,0-0.9,0-1.6
		c1.6,0,3.2,0,4.8,0c0.2,0,0.6,0.7,0.6,1.1c0,4.6,0,9.3,0,13.9c0,5,0,10.1-0.1,15.1c-0.2,8-5.9,14.1-13.8,15c-0.3,0-0.7,0.1-1,0.2
		C355.8,168.6,355,168.6,354.1,168.6z"/>
	<path fill="#FFFFFF" d="M277.6,168.6c-1.6-0.4-3.3-0.6-4.8-1.3c-4.3-1.8-6.8-5.3-8-9.8c-0.1-0.4-0.2-0.9-0.3-1.5
		c1.8-0.4,3.5-0.7,5.3-1.1c0.2,1,0.4,1.9,0.7,2.8c1.3,3.7,5.2,5.8,9,5.6c5.7-0.4,9.5-8.1,5.8-13.1c-0.8-1.1-2.1-2-3.4-2.6
		c-2.7-1.4-5.5-2.7-8.3-3.9c-2.5-1.1-4.6-2.7-5.9-5.1c-2.4-4.2-1.5-10.5,3-13.6c4.2-2.9,8.6-3.5,13.3-2c3,1,5.2,3,6.8,5.9
		c-1.4,0.9-2.8,1.7-4.2,2.6c-0.7-0.8-1.2-1.6-1.9-2.2c-3.4-2.9-8.9-2.6-11.7,0.9c-2,2.6-1.8,5.7,1.4,7.8c2.5,1.6,5.5,2.6,8.3,3.9
		c3,1.4,6,3,7.7,6c2.8,4.9,2.2,9.8-0.7,14.5c-2.2,3.5-5.5,5.3-9.6,5.8c-0.4,0.1-0.8,0.2-1.2,0.2
		C278.7,168.6,278.1,168.6,277.6,168.6z"/>
	<path fill="#FFFFFF" d="M235.7,0c1.7,0.5,3.6,0.7,5.2,1.4c2.3,1.1,4.2,2.9,5.6,5.2c-1.4,0.9-2.8,1.7-4.3,2.6
		c-0.2-0.2-0.5-0.4-0.6-0.7C238.7,4,232,4,228.4,8.3c-1.8,2.1-1.1,6.1,1.6,7.7c2,1.2,4.3,2,6.4,3c2.6,1.2,5.3,2.2,7.5,4.3
		c3.3,3.1,4.3,6.9,3.7,11.1c-0.8,5.7-4.1,9.6-9.6,11.3c-5.4,1.6-11.7,0.1-15.1-4.8c-1.6-2.3-2.7-4.8-2.8-6.9
		c1.7-0.3,3.5-0.7,5.4-1.1c0.2,2.2,1,4,2.3,5.7c2.5,3.1,9.2,3.8,12.4,0c2.6-3.1,2.9-8.6,0.3-11c-1.1-1-2.4-1.8-3.7-2.5
		c-2.8-1.4-5.7-2.5-8.4-4c-3.3-1.8-5.9-4.4-6.3-8.4c-0.4-3.9,0.8-7.1,4.1-9.6c2.3-1.8,5-2.6,7.8-3C234.5,0,235.1,0,235.7,0z"/>
	<path fill="#FFFFFF" d="M230.8,168.6c-2-0.7-4.2-1.1-6.1-2.1c-2.7-1.4-4.5-3.9-5.3-6.7c-1.1-3.4-1.3-7-0.4-10.6
		c1.4-5.4,5.3-9.5,11.4-9.9c3.2-0.2,6.4,0.1,9,2.1c1.5,1.2,2.7,2.8,3.7,4.4c1.4,2.2,1.5,4.8,1.7,7.4c0.1,1.1-0.4,1.3-1.4,1.2
		c-6.1,0-12.1,0-18.2,0c-0.5,0-0.9,0-1.4,0c-0.6,2.4,1.5,7.2,4.6,8.5c5.3,2.2,9,0,11.9-4.5c1.5,0.8,2.9,1.6,4.4,2.5
		c-1.4,2.3-3.1,4.4-5.5,5.5c-1.7,0.8-3.6,1.3-5.3,2C232.9,168.6,231.8,168.6,230.8,168.6z M239.3,150.7c-0.6-4.6-3.8-7.2-8.4-6.8
		c-3.2,0.3-6.5,2.9-6.8,6.8C229.2,150.7,234.2,150.7,239.3,150.7z"/>
	<path fill="#FFFFFF" d="M45,36c0.3,0.5,0.6,1,1,1.4c12.7,12.6,25.3,25.3,38,37.9c5.1,5.1,10.1,10.1,15.1,15.3
		c0.4,0.4,0.7,1.2,0.7,1.8c0.1,4.7,0,9.5,0,14.4c-0.4-0.3-0.6-0.5-0.8-0.7c-7.2-7.2-14.4-14.3-21.5-21.5
		C66.9,73.9,56.3,63.3,45.7,52.7c-0.9-0.9-1.3-1.8-1.3-3.1c0.1-4.4,0-8.9,0-13.3C44.6,36.2,44.8,36.1,45,36z"/>
	<path fill="#FFFFFF" d="M252,69.4c-1.5,1.5-2.7,2.6-3.8,3.7c-1.9-1.5-3.7-3.3-5.9-4.6c-6.4-3.8-13.7-2.9-19.4,1.6
		c-4.9,3.9-6.9,9-6.6,15c0.3,5.5,2.7,10.2,6.9,13.6c5.3,4.2,12.2,5.2,18.4,1.1c3.6-2.4,6-5.8,6.3-10.2c0-0.1,0-0.2-0.1-0.4
		c-0.9,0-1.9,0-2.8,0c-2.5,0-4.9,0-7.4,0c-0.8,0-1.1-0.2-1-1c0-1.3,0-2.5,0-3.9c0.5,0,0.9-0.1,1.2-0.1c5,0,10,0,15,0
		c1.1,0,1.3,0.3,1.3,1.4c0,7.2-2.6,13.2-8,17.7c-3,2.5-6.6,3.6-10.5,4c-6.2,0.6-11.6-1.1-16.2-4.9c-5.1-4.2-8-9.7-8.5-16.4
		c-0.5-6.4,1.4-12.1,5.6-16.8c7.7-8.5,19.7-10.7,30-4.2c0.8,0.5,1.6,1,2.3,1.6C249.9,67.5,250.9,68.4,252,69.4z"/>
	<path fill="#FFFFFF" d="M394.8,84.2c1,9.6-4.7,20.3-15.3,22.6c-8.3,1.8-15.6-0.3-21.6-6.7c-4.8-5.2-6.9-11.2-6.2-18.1
		c0.9-9,6.7-16.3,15.2-19.4c5.9-2.2,11.7-1.8,17.4,0.7c2.9,1.2,6.5,4.1,8.4,6.5c-1.2,1.2-2.5,2.4-3.6,3.4c-1.9-1.5-3.6-3.3-5.6-4.5
		c-6.2-3.7-12.6-3.5-18.5,0.5c-5.6,3.8-8.2,9.2-7.8,16.2c0.4,6.7,5.7,14.3,12.7,16.3c6.3,1.8,13.7-0.7,17-6.3c1.1-1.9,2-3.8,1.9-6.2
		c-3.7,0-7.4,0-11.2,0c0-1.7,0-3.3,0-4.9C383.3,84.2,389,84.2,394.8,84.2z"/>
	<path fill="#FFFFFF" d="M379,167.6c0-14.8,0-29.4,0-44.1c0.1-0.1,0.2-0.2,0.2-0.2c7.4-0.1,14.8-0.8,21.7,2.5
		c5.3,2.5,9.3,6.3,11,12.1c1.8,6.3,1.6,12.6-1.5,18.5c-2.6,4.9-6.8,7.8-11.9,9.6c-3.2,1.1-6.5,1.6-9.9,1.6
		C385.4,167.6,382.2,167.6,379,167.6z M384.5,128.2c0,0.5-0.1,0.8-0.1,1.2c0,10.7,0,21.3,0,32c0,0.7-0.1,1.3,1,1.3
		c4.1,0,8.1-0.3,11.9-1.8c4.5-1.7,7.8-4.7,9.3-9.4c1.1-3.5,1.1-7,0.4-10.6c-0.7-3.8-2.8-6.9-6-9
		C396.1,128.6,390.4,128.3,384.5,128.2z"/>
	<path fill="#FFFFFF" d="M312.1,45.3c-2.3,0-4.2,0.1-6.1,0c-0.4,0-0.8-0.5-1.1-0.9c-3.1-4.4-6.2-8.8-9.2-13.2c-0.7-1-1.6-2-2.2-3.1
		c-0.8-1.4-1.9-1.7-3.4-1.3c0,6.1,0,12.3,0,18.5c-1.9,0-3.6,0-5.4,0c0-14.7,0-29.4,0-44.3c2.6,0,5.2-0.1,7.8,0
		c2.5,0.1,4.9,0.3,7.3,0.8c5.8,1.2,9.6,7.2,9,13.1c-0.5,4.1-2.2,7.2-5.6,9.4c-1.4,0.9-3.2,1.4-4.8,2.1
		C302.8,32.5,307.4,38.8,312.1,45.3z M290.1,21.9c1.8,0,3.6,0.2,5.3,0c3.9-0.6,7.9-1.6,8.3-7.3c0.2-2.6-0.2-5.1-2.6-6.6
		c-3.3-2.1-7-2.2-10.9-2.1C290.1,11.3,290.1,16.6,290.1,21.9z"/>
	<path fill="#FFFFFF" d="M336.2,167.6c-1.7,0-3.3,0-4.9,0c-0.8,0-1.2-0.3-1.5-1c-1.3-3-2.7-6-4-9c-0.4-0.9-0.9-1.2-1.9-1.2
		c-6,0.1-11.9,0.1-17.9,0c-0.9,0-1.4,0.3-1.7,1.1c-1.3,3-2.7,6-4,9c-0.3,0.8-0.7,1.2-1.7,1.1c-1.5-0.1-3,0-4.8,0
		c7.1-15.4,14-30.6,21.1-46C322.1,137,329.1,152.2,336.2,167.6z M323,151.3c-2.6-6-5.2-11.8-7.9-17.9c-2.7,6.1-5.3,11.9-7.9,17.9
		C312.5,151.3,317.6,151.3,323,151.3z"/>
	<path fill="#FFFFFF" d="M297.3,106.5c-1.9,0-3.5,0.1-5.1,0c-0.4,0-0.9-0.5-1.1-1c-1.4-3-2.7-5.9-4-8.9c-0.4-0.9-0.9-1.4-2-1.3
		c-5.9,0.1-11.8,0.1-17.6,0c-1,0-1.5,0.3-1.9,1.2c-1.3,3-2.7,6-4,9c-0.4,0.8-0.8,1.2-1.7,1.1c-1.4-0.1-2.9,0-4.6,0
		c7-15.4,14-30.7,21.1-46.3C283.3,75.8,290.3,91,297.3,106.5z M276.4,72.5c-0.1,0-0.2,0-0.3,0c-2.6,5.9-5.1,11.8-7.7,17.7
		c5.3,0,10.5,0,15.7,0C281.5,84.3,279,78.4,276.4,72.5z"/>
	<path fill="#FFFFFF" d="M277.6,40.4c0,1.7,0,3.2,0,4.9c-7.9,0-15.8,0-23.7,0c0-14.7,0-29.4,0-44.2c0.4,0,0.9-0.1,1.3-0.1
		c7,0,14,0,21,0c1.1,0,1.6,0.2,1.5,1.4c-0.1,1.1,0,2.3,0,3.6c-0.7,0-1.2,0-1.8,0c-5.1,0-10.1,0-15.2,0c-1.2,0-1.5,0.4-1.5,1.5
		c0.1,3.2,0,6.4,0,9.6c0,0.4,0,0.8,0.1,1.4c5.9,0,11.7,0,17.7,0c0,1.7,0,3.4,0,5.1c-5.9,0-11.7,0-17.6,0c0,0.5-0.1,0.8-0.1,1.2
		c0,4.8,0,9.5,0,14.3c0,1,0.3,1.4,1.4,1.4c5.2,0,10.3,0,15.5,0C276.6,40.4,277,40.4,277.6,40.4z"/>
	<path fill="#FFFFFF" d="M442.3,123.3c0,1.7,0,3.2,0,4.9c-6.1,0-12.1,0-18.2,0c0,4.3,0,8.4,0,12.6c5.9,0,11.7,0,17.6,0
		c0,1.7,0,3.2,0,4.9c-0.6,0-1.1,0-1.7,0c-4.9,0-9.9,0-14.8,0c-0.9,0-1.3,0.3-1.2,1.2c0,4.8,0,9.6,0,14.5c0,1.1,0.3,1.4,1.4,1.4
		c5.1,0,10.2,0,15.3,0c0.5,0,1,0,1.6,0c0,1.7,0,3.2,0,4.8c-7.9,0-15.7,0-23.7,0c0-0.4-0.1-0.8-0.1-1.2c0-13.8,0-27.6,0-41.4
		c0-1.2,0.3-1.6,1.5-1.6c6.9,0.1,13.9,0,20.8,0C441.3,123.3,441.8,123.3,442.3,123.3z"/>
	<path fill="#FFFFFF" d="M347,79.5c0,1.7,0,3.2,0,4.9c-5.9,0-11.7,0-17.6,0c0,5.7,0,11.3,0,17c6,0,12,0,18.1,0c0,1.7,0,3.3,0,4.9
		c-0.3,0-0.7,0.1-1.1,0.1c-7.1,0-14.2,0-21.2,0c-1.1,0-1.3-0.4-1.3-1.3c0-13.9,0-27.8,0-41.7c0-0.4,0-0.8,0.1-1.3
		c7.9,0,15.6,0,23.5,0c0,1.6,0,3.1,0,4.8c-6,0-12,0-18.1,0c0,4.2,0,8.3,0,12.6C335.2,79.5,341,79.5,347,79.5z"/>
	<path fill="#FFFFFF" d="M373.1,40.1c7.6,0,15,0,22.5,0c0,1.5,0,3-0.1,4.5c0,0.2-0.8,0.5-1.2,0.5c-4.3,0-8.5,0-12.8,0
		c-5.2,0-10.5,0-15.7,0c-0.4,0-0.8,0-1.5,0c7.5-13.2,15-26.2,22.5-39.4c-6.6,0-12.9,0-19.3,0c0-1.7,0-3.3,0-4.9c9.3,0,18.6,0,28.1,0
		C388.1,13.9,380.7,26.9,373.1,40.1z"/>
	<path fill="#FFFFFF" d="M312,1c2,0,3.8,0,5.6,0c0.3,0,0.6,0.5,0.7,0.9c3.8,9.4,7.7,18.9,11.5,28.4c0.4,1.1,0.9,2.2,1.5,3.5
		c1.1-2.8,2.1-5.3,3.2-7.9c3.2-8,6.4-15.9,9.6-23.9c0.3-0.8,0.7-1,1.5-1c1.6,0.1,3.1,0,5,0c-6.4,15.6-12.8,31-19.2,46.7
		C324.8,32,318.5,16.6,312,1z"/>
	<path fill="#FFFFFF" d="M320,101.5c0,1.7,0,3.3,0,4.9c-0.3,0-0.6,0.1-0.9,0.1c-5.6,0-11.2,0-16.8,0c-0.9,0-1.3-0.1-1.3-1.2
		c0-14,0-28.1,0-42.1c0-0.3,0-0.7,0.1-1.1c1.8,0,3.5,0,5.4,0c0,0.8,0,1.5,0,2.3c0,11.8,0,23.5,0,35.3c0,1.7,0,1.7,1.7,1.7
		c3.4,0,6.8,0,10.2,0C319,101.5,319.5,101.5,320,101.5z"/>
	<path fill="#FFFFFF" d="M354.3,1c1.6,0,3,0,4.5,0c0.3,0,0.6,0.5,0.8,0.8c0.1,0.1,0,0.3,0,0.5c0,13.9,0,27.8,0,41.7
		c0,0.4,0,0.8,0,1.2c-1.8,0-3.5,0-5.3,0C354.3,30.6,354.3,15.9,354.3,1z"/>
	<path fill="#FFFFFF" d="M356.8,111.8c1.6,0.8,3.1,1.6,4.8,2.5c-3.2,3-6.4,5.8-9.6,8.8c-0.8-0.5-1.6-0.9-2.5-1.5
		C351.9,118.3,354.3,115.1,356.8,111.8z"/>
</g>
</svg>
